<?xml version="1.0" encoding="utf-8"?>
<!-- Generator: Adobe Illustrator 28.2.0, SVG Export Plug-In . SVG Version: 6.00 Build 0)  -->
<svg version="1.1" id="Layer_1" xmlns="http://www.w3.org/2000/svg" xmlns:xlink="http://www.w3.org/1999/xlink" x="0px" y="0px"
	 viewBox="0 0 2048 2048" style="enable-background:new 0 0 2048 2048;" xml:space="preserve">
<style type="text/css">
	.st0{clip-path:url(#SVGID_00000013872583925778962830000002603916547195988119_);}
	.st1{clip-path:url(#SVGID_00000053534132228378533900000002017396872921188748_);}
	.st2{clip-path:url(#SVGID_00000017500940412021808020000002358348680448635526_);}
	.st3{clip-path:url(#SVGID_00000162321499599553573280000005051227237094448557_);}
	.st4{clip-path:url(#SVGID_00000128446007263238408950000014163316273828562603_);}
	.st5{clip-path:url(#SVGID_00000080201085458308075730000016094324834427660734_);}
	.st6{clip-path:url(#SVGID_00000060010422540878979810000004790490717655245976_);}
	.st7{fill:#FFFFFF;}
	.st8{clip-path:url(#SVGID_00000017493950083774763020000001192676817442722706_);}
	.st9{fill:#FFB41D;}
	.st10{fill:#00F0FF;}
	.st11{fill:#DC2626;}
</style>
<g>
	<defs>
		<rect id="SVGID_1_" x="140" y="1423.2" width="249.3" height="182.1"/>
	</defs>
	<clipPath id="SVGID_00000119813075592038763440000013710289481608859280_">
		<use xlink:href="#SVGID_1_"  style="overflow:visible;"/>
	</clipPath>
	<g style="clip-path:url(#SVGID_00000119813075592038763440000013710289481608859280_);">
		<path d="M376.6,1517.5c-2.3-2.7-5.4-5-8.8-6.5l0.8-0.8c7.3-7.7,11.9-18.5,11.9-29.2c0-31.2-25-56.9-56.6-56.9H141.1v143.5
			l101.2,37.3l97.4-1.2c26.9,0,48.5-21.9,48.5-48.9C388.6,1539.4,387.8,1528.6,376.6,1517.5z M210.4,1465.9h81.2
			c8.8,0,16.2,6.5,16.2,15.4c0,8.8-7.3,15.4-16.2,15.4h-81.2V1465.9z M299.7,1562.1h-89.3v-30.8h89.3c8.9,0,16.2,6.5,16.2,15.4
			S308.1,1562.1,299.7,1562.1z"/>
	</g>
</g>
<g>
	<defs>
		<rect id="SVGID_00000111876965546539382810000006863984983980153260_" x="382.7" y="1423.2" width="289.3" height="178.1"/>
	</defs>
	<clipPath id="SVGID_00000082344295481395737680000001196854630148314798_">
		<use xlink:href="#SVGID_00000111876965546539382810000006863984983980153260_"  style="overflow:visible;"/>
	</clipPath>
	<g style="clip-path:url(#SVGID_00000082344295481395737680000001196854630148314798_);">
		<path d="M583.6,1423.6l-55.8,62.7l-56.6-62.7h-87.7l107.7,110.1v67h69.3v-67l110.8-110.1H583.6z"/>
	</g>
</g>
<g>
	<defs>
		<rect id="SVGID_00000104678776457101452150000011196082391706914176_" x="678.7" y="1423.2" width="236" height="178.1"/>
	</defs>
	<clipPath id="SVGID_00000066486849716918723550000015275888635343679400_">
		<use xlink:href="#SVGID_00000104678776457101452150000011196082391706914176_"  style="overflow:visible;"/>
	</clipPath>
	<g style="clip-path:url(#SVGID_00000066486849716918723550000015275888635343679400_);">
		<path d="M679.8,1423.6v50h80.8v127h73.1v-120.8l-39.2-10l79.3,3.5h40.8v-50H679.8V1423.6z"/>
	</g>
</g>
<path d="M337,1666H206.5v0.4l100.4,36.9l-0.4,34.2v36.6c0,12.3-10,22.3-22.3,22.3h-58.9c-19.2,0-24.2-19.2-25.4-34.6h-58.9v27.7
	c0,28.5,22.7,52.7,51.6,53.1h120.4c32.3,0,62.7-23.1,62.7-55.8v-106.2L337,1666z"/>
<g>
	<defs>
		<rect id="SVGID_00000042697183269528489190000015964833960564675489_" x="686.7" y="1665.3" width="236" height="177.9"/>
	</defs>
	<clipPath id="SVGID_00000002359033376081367930000017106697623806055579_">
		<use xlink:href="#SVGID_00000042697183269528489190000015964833960564675489_"  style="overflow:visible;"/>
	</clipPath>
	<g style="clip-path:url(#SVGID_00000002359033376081367930000017106697623806055579_);">
		<path d="M687.5,1666v50h80.8v127h73.1v-118.9l-46.9-11.9l79.3,3.5h48.5v-50H687.5V1666z"/>
	</g>
</g>
<g>
	<defs>
		<rect id="SVGID_00000136407399634153189390000013521807855814444735_" x="941.3" y="1665.3" width="252" height="177.9"/>
	</defs>
	<clipPath id="SVGID_00000054228152967417552970000010347439428080031119_">
		<use xlink:href="#SVGID_00000136407399634153189390000013521807855814444735_"  style="overflow:visible;"/>
	</clipPath>
	<g style="clip-path:url(#SVGID_00000054228152967417552970000010347439428080031119_);">
		<path d="M1131.2,1735.3h-95.4c-4.6,0-18.5-1.2-18.5-13.5s13.5-13.5,18.5-13.5h62.3c9.2,0,17.7,3.8,21.9,15.4h71.2
			c-4.2-34.6-31.6-57.7-64.3-57.7h-119.3c-32.3,0-62.3,11.9-62.3,52.3c0,40.4,30,55.4,62.7,55.4h95c5,0,18.5,1.2,18.5,13.1
			s-13.1,13.1-18.5,13.1c-16.9,0-68.5-1.2-68.5-1.2c-9.2,0.4-17.3-1.9-21.6-13.5h-71.2c4.2,34.6,31.6,57.7,63.9,57.7h125.1
			c32.3,0,62.3-11.9,62.3-51.9C1193.5,1750.7,1163.5,1735.3,1131.2,1735.3z"/>
	</g>
</g>
<g>
	<defs>
		<rect id="SVGID_00000007399685495393830360000009563696118691260807_" x="1221.3" y="1665.3" width="256" height="177.9"/>
	</defs>
	<clipPath id="SVGID_00000075868546326470909220000013623227482955835069_">
		<use xlink:href="#SVGID_00000007399685495393830360000009563696118691260807_"  style="overflow:visible;"/>
	</clipPath>
	<g style="clip-path:url(#SVGID_00000075868546326470909220000013623227482955835069_);">
		<path d="M1407.1,1666v108.5c-3.8,11.9-13.1,22.3-24.6,22.3h-66.2c-11.5,0-20.8-10.4-24.6-22.3V1666h-69.3v121.2
			c0,32.7,32.7,55.8,65,55.8h123.9c32.3,0,65-23.1,65-55.8V1711L1407.1,1666z"/>
	</g>
</g>
<path d="M940.7,1470.5H1172l-70-45.4H940.7V1470.5z"/>
<path d="M941.5,1556.7h231.3l-70,45.8H941.5V1556.7z"/>
<path d="M940.7,1490.9H1172v45.4H940.7V1490.9z"/>
<path d="M940.7,1556.7H1172v45.4H940.7V1556.7z"/>
<g>
	<defs>
		<rect id="SVGID_00000026884516372385606070000015421856026307908238_" x="405.3" y="1661.3" width="254.7" height="181.9"/>
	</defs>
	<clipPath id="SVGID_00000102518422097165444690000001461296288254189721_">
		<use xlink:href="#SVGID_00000026884516372385606070000015421856026307908238_"  style="overflow:visible;"/>
	</clipPath>
	<g style="clip-path:url(#SVGID_00000102518422097165444690000001461296288254189721_);">
		<path d="M590.2,1662.3v112.4c-3.8,11.9-13.1,22.3-24.6,22.3h-66.2c-11.5,0-20.8-10.4-24.6-22.3v-108.5h-69.3v121.2
			c0,32.7,32.7,55.8,65,55.8h123.9c32.3,0,65-23.1,65-55.8V1665L590.2,1662.3z"/>
	</g>
</g>
<path class="st7" d="M941.4,561.1l-71.6,108.5c0,0-87.6,186.3-85.5,187c2.1,0.7,53.6,45.2,53.6,45.2l137.7,57.7
	c0,0,123.8-188.4,124.5-189.8c0.7-1.4,59.8-115.4,59.8-115.4l-211.4-99.4L941.4,561.1z"/>
<g>
	<defs>
		<rect id="SVGID_00000096768460703072593030000003105115798645078952_" x="448" y="50.7" width="1547.1" height="1792"/>
	</defs>
	<clipPath id="SVGID_00000117634055731625556700000001778719840396791954_">
		<use xlink:href="#SVGID_00000096768460703072593030000003105115798645078952_"  style="overflow:visible;"/>
	</clipPath>
	<g style="clip-path:url(#SVGID_00000117634055731625556700000001778719840396791954_);">
		<path d="M1970.7,1795.9c-92.5-38.9-183.6-80.7-271.9-130l-100.8-56.3c-2.1-0.7-3.5-0.7-4.9-2.1c-19.5-11.1-38.3-22.9-57.7-34.1
			c-4.2-2.1-4.9-6.3-6.3-10.4c-3.5-15.3-6.3-30.6-9.7-45.9c-4.2-18.8-7.7-37.5-11.8-57c-10.4-52.8-20.9-105.7-31.3-159.2
			c-4.2-20.9-8.3-41.7-12.5-61.9c-0.7-2.1,0-4.9-0.7-7.7c5.6,2.1,8.3,5.6,11.1,8.3c18.8,22.2,37.6,45.2,56.3,67.4
			c3.5,4.2,6.3,9,9.7,13.2c2.1,2.8,2.8,5.6,0,9c-3.5,4.9-5.6,9.7-9.7,13.9c-7,7.6-9,16-7.7,25.7c1.4,13.9,2.1,28.5,2.8,42.4
			c0,3.5,1.4,6.3,5.6,7.7c16,5.6,32,10.4,48.7,16c2.8,0.7,6.3,0.7,9-1.4c17.4-13.2,33.4-28.5,48-44.5c4.2-4.2,4.2-9,2.1-13.9
			c-4.2-11.1-8.3-22.9-12.5-34.1c-13.9-44.5-27.1-88.3-41-132.8c-7-23.6-14.6-47.3-22.3-70.9c-1.4-4.9-4.2-9-7.7-13.2
			c-11.1-15.3-22.3-29.9-33.4-45.2c-7.7-10.4-6.3-12.5,4.9-17.4c5.6-2.1,10.4-4.2,15.3-7c4.9-2.8,5.6-3.5,3.5-9
			c-0.7-3.5-2.1-7.7-2.8-11.1c-32.7-120.3-65.4-241.3-98.1-361.6c-2.1-7-4.9-12.5-10.4-17.4c-2.8-2.1-4.9-4.2-7.7-6.3
			c-22.3-15.3-43.8-31.3-66.1-46.6c-2.1-1.4-22.3-13.2-19.5-13.2c-4.2-4.2-7-9-11.1-12.5c-9.7-7.6-12.5-17.4-11.8-33.4l125.2,4.2
			c-12.5-40.3-24.3-84.8-36.2-127.2c12.5-9.7,27.8-9.7,41-18.1c-4.2-18.8-9.7-36.8-16-54.9c0-0.7-0.7-0.7-0.7-1.4
			c-1.4-3.5-4.2-4.9-8.3-3.5c-4.2,1.4-9,2.1-13.9,2.8c-2.1,0-3.5-0.7-7-1.4c2.8-4.2,4.9-7.6,7-11.1c16.7-20.9,27.1-44.5,34.1-70.2
			c4.9-17.4,5.6-36.2,6.3-54.2c2.1-40.3,2.8-81.4,4.9-121.7v-7.7c-2.8,0.7-4.9,1.4-7,2.1c-19.5,9.7-38.9,19.5-58.4,29.9
			c-2.8,1.4-4.9,3.5-7.7,5.6c2.8,2.8,4.9,4.2,7,6.3c13.9,11.1,23,24.3,21.6,43.1c-0.7,16-0.7,32.7-2.8,48.7
			c-1.4,14.6-7.6,27.8-15.3,40.3c-0.7,1.4-2.8,2.8-4.2,4.2c-1.4-2.8-2.1-4.2-2.8-5.6c-4.2-18.1-13.9-32.7-26.4-45.9
			c-23.6-23.6-51.5-36.2-85.5-32.7c-9,0.7-11.1,3.5-9,12.5c0.7,3.5,1.4,7.6,2.8,11.1c2.8,7.6,5.6,15.3,9,22.9
			c13.9,29.9,35.5,51.5,66.8,64c7.7,2.8,15.3,4.2,22.9,2.8c15.3-2.8,29.9-8.3,41-19.5c2.1-2.1,4.9-4.2,8.3-7
			c-1.4,3.5-1.4,5.6-2.8,7.7c-4.9,9.7-9.7,19.5-15.3,29.9c-4.2,7.7-10.4,13.9-18.1,18.8c-8.3,5.6-17.4,9-27.1,10.4
			c-7.7,1.4-15.3,1.4-21.6-2.8c-7-4.2-14.6-8.3-21.6-13.9c-14.6-11.1-26.4-25-36.9-40.3c-14.6-21.6-25-44.5-30.6-69.5
			c-4.2-19.5-7.7-39.6-11.1-59.1c-1.4-7.7,0.7-12.5,7-16.7c4.9-3.5,9.7-6.3,15.3-9.7c2.1-1.4,4.2-2.8,7-4.9
			c-7-2.8-12.5-5.6-18.1-7.7c-45.9-16.7-91.8-33.4-137.7-50.1c-2.1-0.7-4.9,3.5-7-3.5h-1.4c-0.7,7,2.8,8.3,4.9,11.1
			c13.2,17.4,27.1,35.5,39.6,53.5c18.1,25,34.8,50.8,52.2,76.5c0.7,0.7,0.7,1.4,1.4,3.5c-34.1,19.5-54.2,50.1-68.8,85.5h-6.3
			c-5.6-2.1-9,0-12.5,3.5c-1.4,1.4-2.8,2.8-4.2,4.9c-10.4,13.2-20.9,27.1-31.3,40.3c-2.8,3.5-4.2,7-6.3,10.4c-2.1,3.5-2.8,7,0.7,9.7
			c1.4,1.4,2.1,3.5,3.5,6.3c-3.5,0-5.6,0.7-7,0c-4.9-1.4-8.3,0.7-11.8,4.2c-1.4,1.4-2.1,2.8-3.5,4.2c-23.6,29.2-47.3,59.1-70.9,88.3
			c-2.1,2.8-4.9,6.3-7,9c-1.4,1.4-1.4,3.5-2.1,6.3c4.2,1.4,7,2.8,10.4,4.2c32,13.2,64,26.4,96,39.6c2.8,1.4,5.6,2.8,9,4.2
			c-4.9,2.8-9,4.9-12.5,7c-21.6,10.4-43.1,20.9-64.7,31.3c-4.9,2.1-8.3,2.1-13.2-0.7c-9.7-4.9-20.2-9.7-29.9-14.6
			c-4.2-2.1-7-2.1-9,2.1c-4.2,5.6-7.6,11.1-11.8,17.4c2.8,2.1,5.6,3.5,7.7,4.2c18.8,9.7,37.6,18.8,56.3,28.5
			c41,20.9,82.1,41,123.8,61.9c2.8,1.4,5.6,3.5,9,5.6c-2.8,5.6-4.9,9.7-7.7,14.6c-26.4,44.5-53.6,89-80,134.2
			c-25,43.1-50.1,86.9-75.1,130.7l-2.1,4.2c-4.2,6.3-4.2,7-11.8,4.2c-5.6-2.1-11.1-4.9-16-7.6c-45.9-23.6-91.8-47.3-138.4-70.9
			c-2.8-1.4-4.9-2.8-9-4.2c0.7,2.8,0.7,4.9,1.4,7.7c4.2,19.5,7.7,38.9,11.1,58.4v0.7l65.4,25l-7,17.4c0.7,0,2.1,0.7,4.2,2.1
			c4.2,2.1,8.3,4.9,12.5,7.6c1.4,0.7,2.8,1.4,4.2,2.8c11.1,6.3,22.3,12.5,34.1,18.8c3.5,2.1,7.7,4.2,11.1,6.3
			c7.6,4.2,15.3,8.3,22.9,12.5c0.7,0.7,1.4,0.7,2.1,1.4c0.7,0.7,1.4,0.7,2.1,1.4c3.5,2.8,5.6,5.6,7,10.4c9,30.6,18.1,60.5,27.1,91.1
			c0.7,2.1,0.7,4.9,1.4,7c-21.6,11.1-42.4,22.2-64.7,33.4c-2.8-2.8-4.9-5.6-7-8.3c-19.5-25-39.6-50.1-59.1-75.8
			c-5.6-7.7-11.8-15.3-17.4-23.6c-2.1-2.8-4.2-4.9-5.6-7.7c-0.7-0.7-1.4-1.4-1.4-2.1c-0.7-0.7-0.7-1.4-0.7-2.1v0.7l-144-98.7
			l24.3-39.6c2.1-3.5,3.5-5.6,4.9-8.3l0.7-0.7c11.1-17.4,21.6-34.8,32.7-52.2c43.1-66.1,85.5-132.1,128.7-198.2
			c2.8-4.2,4.9-7.6,6.3-9.7c1.4-2.1,2.8-3.5,3.5-5.6c0-0.7,0.7-1.4,0.7-1.4c0.7-0.7,0.7-1.4,1.4-2.1c0.7-1.4,1.4-2.1,1.4-2.8
			l0.7-0.7c-3.5,0-5.6,1.4-7.7,2.1c-7.7,4.9-15.3,9.7-23.6,15.3c-0.7,0.7-1.4,0.7-2.1,1.4c-41,27.8-79.3,58.4-113.4,93.9l-0.7,0.7
			c-48.7,52.1-81.4,104.3-101.5,137c-0.7,1.4-1.4,2.1-2.1,3.5c-0.7,0.7-0.7,1.4-1.4,2.8c-3.5,6.3-7,11.8-11.1,17.4
			c-1.4,2.1-2.1,2.8-3.5,3.5c-2.1,1.4-3.5,0.7-7-1.4c-37.6-25.7-75.8-52.2-113.4-77.9c-7.7-5.6-14.6-11.1-22.3-16
			c-7-4.9-7.7-4.9-13.9,1.4c-9.7,11.1-18.8,22.9-28.5,34.8c-0.7,0.7-0.7,1.4-1.4,2.8c4.9,4.2,9.7,9,15.3,12.5
			c43.1,30.6,85.5,60.5,128.7,91.1c5.6,4.2,11.8,7.7,16.7,11.8c3.5,2.8,4.9,4.2,4.9,6.3l290,214.2c0,0,29.9,92.5,31.3,89
			c4.2,9,7.7,16.7,10.4,24.3c3.5,8.3,9,14.6,16.7,19.5c3.5,2.1,7.7,4.2,11.1,7c15.3,9,30.6,18.1,45.9,27.1
			c11.8,7,23.6,13.2,35.5,19.5c7.7-4.9,13.2-11.1,20.9-13.9c-0.7,2.8-2.8,5.6-4.2,8.3c-2.1,4.2-4.2,8.3-6.3,12.5
			c-2.1,5.6-0.7,9,5.6,11.1c13.9,4.2,13.9,7.6,23.6-7.7c2.8-4.9,5.6-9,8.3-13.9c16,11.1,31.3,21.6,46.6,32
			c0,0,440.2,284.4,456.9,294.1c61.2,35.5,123.1,69.5,187.1,99.4c34.8,16,69.6,32.7,105.7,45.9c2.8,1.4,6.3,2.8,9.7,1.4
			c25-8.3,48.7-16.7,73.7-24.3c4.2-1.4,11.8-1.4,11.8-2.8v-1.4C1998.6,1805.7,1981.2,1800.1,1970.7,1795.9z M1356.6,397.7
			c13.9-3.5,27.1-7,38.9-18.1c0,2.1-0.7,4.2-1.4,6.3c0,0.7-0.7,2.1-1.4,2.8c-0.7,2.1-1.4,3.5-2.8,5.6c-0.7,1.4-2.1,2.8-2.8,4.9
			c-0.7,0.7-0.7,1.4-1.4,2.1c-1.4,1.4-2.8,2.8-3.5,4.2c-0.7,0.7-1.4,0.7-2.1,1.4c-1.4,0.7-2.8,2.1-4.2,2.8c-0.7,0.7-1.4,0.7-2.1,0.7
			c-0.7,0.7-1.4,0.7-2.1,0.7c-4.2,0.7-8.3,0.7-11.8-0.7c-2.1-0.7-4.2-2.1-6.3-4.2C1351.1,402.5,1351.8,399.1,1356.6,397.7z
			 M1321.8,708.5c17.4,25,35.5,49.4,53.6,73.7c7,9,9.7,18.1,4.9,28.5c-2.1,4.9-3.5,11.8-4.9,17.4c-0.7,1.4-0.7,0-1.4,7h-2.1
			c-0.7,0-0.7-2.8-1.4-3.5c-0.7-0.7-0.7-2.1-1.4-2.8c-4.9-7-9.7-14.6-15.3-21.6c-38.2-52.2-76.5-104.3-115.4-155.8
			c-28.5-37.5-57.7-73.7-86.9-110.6c-4.2-4.9-7.7-10.4-11.8-15.3c-0.7-0.7-0.7-1.4-1.4-2.1c-0.7-0.7-0.7-2.1,0-3.5
			c0-0.5,0.2-0.9,0.7-1.4c4.2-6.3,7.6-12.5,12.5-19.5c0.7,0.7,1.4,1.4,2.1,2.1c1.4,1.4,2.1,2.8,2.8,3.5c0.5,0.5,0.9,0.9,1.4,1.4
			c12.5,13.9,25.7,27.8,38.9,41.7c2.8,3.5,6.3,7,9.7,9.7l4.9,4.9c1.4,2.1,3.5,3.5,4.9,5.6c4.9,6.3,9.7,11.8,14.6,18.1
			c14.6,18.1,29.2,36.2,43.1,54.2C1289.8,662.6,1305.2,685.5,1321.8,708.5z M1229.3,421.3c-0.5,0-0.7-0.2-0.7-0.7
			C1228.6,420.6,1229.3,420.6,1229.3,421.3z M1230,421.3c0,0-1.4,0-2.1-0.7c0.7,0,0,0,0,0.7C1228,422,1229.3,422,1230,421.3
			c8.3,4.9,17.4,9.7,25.7,14.6c4.2,2.8,7,4.9,11.8,7.7c4.2,2.8,11.8,4.9,11.8,7.6l-2.1,61.2c0,0.7,2.1,1.4,2.8,2.1h-2.1v-2.1
			c-0.7,0-0.7-0.7-1.4-0.7c-0.7,0-0.7-0.7-0.7-0.7h-0.7c-8.3-4.9-16-9.7-22.9-13.9c-0.7-0.7-1.4-0.7-2.1-1.4
			c-0.7-0.7-0.7-0.7-1.4-1.4c-4.2-2.8-7.7-5.6-11.8-9c-2.8-2.1-4.9-6.3-5.6-9c-0.7-5.6-3.5-11.1-3.5-16
			C1228,446.3,1226.6,433.8,1230,421.3z M1264.8,381.7c16,7.7,32,13.2,49.4,15.3c2.1,0,4.2,2.1,4.2,2.8v0.7c0,0.7,1.4,0.7,0.7,1.4
			v1.4c0,0.7,0,1.4-0.7,1.4l-0.7,0.7c0,0,0,0.7-0.7,0.7c-1.4,1.4-3.5,2.1-4.9,3.5c0,0-0.7,0-0.7,0.7c-0.7,0.7-1.4,0.7-2.8,1.4h-0.7
			c-1.4,0.7-2.8,0.7-3.5,1.4c-1.4,0.7-2.8,0.7-4.9,0.7h-4.2c-2.1,0-4.2,0-6.3-0.7c-10.4-2.1-18.1-7-24.3-13.2l-4.9-4.9
			c-2.8-3.5-6.3-7-9-11.1c-1.4-2.1-2.8-4.2-4.2-5.6C1254.4,376.8,1259.9,378.9,1264.8,381.7z M1158.4,292v-4.2
			c0.7-1.4,0.7-2.8,1.4-4.9c0.7-1.4,1.4-3.5,2.1-4.9c0.7-2.1,1.4-3.5,2.8-5.6c2.1-4.9,4.9-9.7,8.3-13.9c0.7-1.4,2.1-2.8,2.8-4.2
			c2.1-3.5,4.2-7,7-10.4c9-12.5,18.1-23.6,24.3-27.1c4.9,5.6,9,11.8,13.2,18.1c0.7,1.4,1.4,2.8,2.1,4.2c0.7,1.4,1.4,2.8,2.1,4.2
			c2.8,4.9,4.9,9.7,6.3,15.3c0.7,2.1,0.7,4.2,0.7,6.3c-0.7,15.3-1.4,30.6-2.1,45.9c0,7.7-0.7,15.3-0.7,22.9v0.7
			c0,0.7-0.7,2.1-0.7,3.5C1200.1,323.3,1179.3,308,1158.4,292z M1097.2,340c7-8.3,13.2-16.7,20.2-25.7c2.1-2.8,3.5-4.2,5.6-4.9
			c1.4-0.7,2.1-0.7,3.5-0.7c0.7,0,1.4,0.7,2.8,0.7c1.4,0.7,2.1,0.7,3.5,2.1c21.6,11.8,42.4,22.9,63.3,34.8c2.8,1.4,5.6,3.5,8.3,6.3
			c-8.3,10.4-16.7,22.2-24.3,32.7c-2.8,3.5-5.6-2.1-7.7,11.8c-19.5-13.9-73-41-79.3-48C1094.4,346.2,1095.8,342,1097.2,340z
			 M1017.2,451.9c0-0.7,0.7-0.7,0.7-1.4c0.7-1.4,1.4-2.1,2.1-3.5c16.7-21.6,32.7-43.1,49.4-64.7c4.9-6.3,6.3-7,13.9-2.8
			c23.6,12.5,48,25,71.6,38.2c0.7,0.7,1.4,1.4,2.8,2.1c-16.7,25-32.7,49.4-48.7,73.7C1097.9,490.1,1021.4,455.4,1017.2,451.9z
			 M1136.2,731.4c1.4-7,6.3-13.9,9.7-20.2c10.4-18.1,20.9-35.5,31.3-53.5c2.1-3.5,4.2-7.6,6.3-11.8c-1.4-0.7-2.1-1.4-2.8-2.1
			c-0.7-0.7-1.4-0.7-2.1-1.4c-29.9-15.3-59.8-30.6-90.4-45.9c-4.2-2.1-8.3-4.2-11.8-7c-8.3-4.2-16.7-9-25-13.2
			c-2.8-1.4-6.3-2.1-7.7-6.3c2.1-1.4,3.5-3.5,5.6-4.2c16-8.3,31.3-16,47.3-24.3c2.1-1.4,4.2-2.1,5.6-2.1c0.7-0.7,1.4,1.4,2.1,1.4
			c0.7,0,0.7,1.4,1.4,1.4c0.7,0,0.7-1.4,1.4-1.4c2.8,0.7,3.5,1.4,7.7,5.6c1.4,1.4,2.1,2.1,2.1,3.5c13.9,14.6,26.4,29.9,38.2,44.5
			c62.6,75.8,121,155.1,174.6,237.1c43.1,64.7,82.1,134.2,115.4,204.4c0.7,1.4-9,1.4,4.9,4.9c0,0.7-2.8,1.4-2.8,1.4h-9.7
			c-34.8-1.4-66.1-3.5-100.8-4.9c-1.4,0-3.5-1.4-4.9-1.4c-2.1,0,0-2.1,0-4.9c0-0.7-6.3-1.4-7-2.1c-18.1-32-39.6-63.3-57.7-94.6
			c-17.4-29.9-36.2-59.8-53.6-89.7c-2.1-2.8-4.9-5.6-6.3-8.3h-0.7c-0.7,0-0.7,0.7-1.4,0.7c0.7,3.5,0.7,6.3,1.4,9.7
			c9.7,41.7,18.8,83.4,28.5,125.2c0.7,4.9,2.1,9.7,2.8,14.6c2.8,14.6,5.6,28.5,8.3,43.1v7c-6.3,2.1-37.6,0-47.3,0
			c-0.7-7-1.4-6.3-2.1-8.3c-7.7-33.4-16-66.7-23-100.1c-2.8-11.1-4.9-22.2-7-33.4c-2.1-9-3.5-18.1-5.6-26.4
			c-2.1-9-3.5-17.4-5.6-26.4c-2.1-9-3.5-17.4-4.9-26.4c-4.2-20.9-7.7-41-11.8-61.9c-0.7-2.1-1.4-4.9-1.4-7c0-0.7-0.7-1.4-0.7-2.1
			c-0.7-1.4-0.7-2.8-0.7-4.9V731.4z M1299.6,1270.3c-7.7-2.8-14.6-5.6-22.3-8.3c-2.1-0.7-4.2-1.4-5.6-2.1c-1.4-0.7-2.8-1.4-4.2-2.1
			c-0.7-0.7-1.4-0.7-2.1-1.4l-0.7-0.7l-0.7-0.7v-4.9c0-2.1,0.7-4.9,2.1-9c9-34.8,17.4-68.8,25.7-103.6c2.8-11.1,11.1-18.1,20.2-24.3
			c4.2-2.8,8.3-1.4,11.8,2.8c1.4,2.1,2.8,4.2,4.2,6.3c5.6,11.1,5.6,22.2,2.8,34.1c-5.6,28.5-11.1,56.3-16.7,84.8
			c-2.1,10.4-3.5,20.9-8.3,30.6C1303.8,1272.4,1301.7,1271,1299.6,1270.3z M1116,933.1c14.6,32,28.5,64,42.4,96.7
			c-20.9,0-32,0-47.3-0.7c-4.2,0-9.7,0-13.9-0.7c-2.8,0-5.6,0-8.3-0.7c-2.8,0-4.9-0.7-7.6-0.7C1091.6,994.9,1104.2,964.3,1116,933.1
			z M1049.9,1087.4l2.8-2.1h1.4v1.4l0.7-0.7v-0.7h0.7c75.1,2.8,150.2,6.3,225.3,9v0.7c0,0,1.4,0,1.4,0.7h1.4l-0.7,0.7
			c-20.9,22.2-22.3,24.3-26.4,47.3c-25.7-0.7-51.5-2.1-76.5-2.8c-12.5-0.7-25,0.7-37.6,0c-7.6-0.7-15.3,0.7-22.3,0.7
			c-2.8,0-5.6-2.1-8.3-2.1c-3.5,0-6.3-1.4-9.7-2.1v-0.7c-1.4,0-2.8-0.7-4.9-0.7c-15.3-0.7-30.6-2.1-45.9-2.8h-2.8L1049.9,1087.4z
			 M1062.4,1267.5c-0.7,11.1-1.4,22.2-4.9,33.4c-1.4-0.7-2.8-0.7-3.5-1.4c-25-14.6-50.1-28.5-74.4-43.1c-7-4.2-13.2-7.6-20.2-11.1
			c-4.2-2.1-6.3-4.9-6.3-9.7c0-6.3,0.7-12.5,0.7-18.8c0-2.8,0-4.9,0.7-7c0.7-2.1,1.4-4.2,2.1-5.6l0.7-0.7c0.7-1.4,2.1-2.8,2.8-3.5
			c1.4-1.4,3.5-2.8,5.6-3.5c17.4-9,34.8-17.4,52.9-25.7h2.8c7,7,13.9,13.2,20.9,20.2l20.9,20.9c1.4,1.4,2.1,4.9,2.1,7
			C1064.5,1234.1,1063.8,1250.8,1062.4,1267.5z M1212.7,1253.6c-7.7,25-14.6,50.1-22.3,75.8c0,0.7-0.7,1.4-0.7,1.4
			c-0.7,1.4-1.4,2.8-1.4,3.5c-2.1,2.8-4.2,2.1-8.3-0.7c-8.3-6.3-16.7-12.5-24.3-18.8c-4.9-4.2-6.3-9-2.8-15.3
			c1.4-3.5,3.5-6.3,4.9-9.7c2.8-5.6,6.3-11.1,9.7-17.4c-1.4-0.7-2.8-1.4-4.2-2.1c-3.5-2.1-7-4.2-11.1-5.6
			c-5.6-2.1-10.4-1.4-13.9,3.5c-2.8,3.5-5.6,7.6-8.3,11.8c-2.1,2.8-4.2,6.3-7,10.4c-4.2-4.2-7.6-8.3-11.8-11.8
			c1.4-2.1,2.1-3.5,3.5-4.9c3.5-5.6,7.7-11.1,11.1-16.7c0.7-1.4,1.4-2.1,1.4-3.5c0.7-1.4,0.7-2.8,0.7-4.2c0-0.7,0-1.4-0.7-2.1
			c-0.7-1.4-1.4-2.1-2.1-3.5l-2.1-2.1c-3.5-2.8-7.6-4.9-11.8-7c-4.2-2.1-7.6-4.2-11.8-7c0.7-5.6,1.4-9.7,2.1-14.6
			c0.7-4.9-0.7-9-4.2-12.5c-4.2-3.5-7-7.6-7.7-13.9c3.5-2.8,7.7-3.5,12.5-2.1c4.2,1.4,7.7,2.8,11.8,4.2
			c34.1,15.3,67.5,30.6,101.5,45.9c1.4,0.7,2.8,2.1,4.9,2.8c-0.7,2.8-1.4,5.6-2.8,8.3C1214,1248,1213.3,1250.8,1212.7,1253.6z
			 M1418.5,1503.2c-7.7-4.2-11.1-7.6-16.7-11.8c-16-11.1-31.3-22.2-47.3-33.4c-2.1-1.4-3.5-2.8-5.6-4.2
			c-29.2-20.9-58.4-41.7-87.6-61.9c-1.4-0.7-2.1-1.4-2.8-2.8c-0.7-0.7-0.7-1.4-1.4-1.4c-0.7-0.7-0.7-1.4-0.7-2.1
			c0-0.7-0.7-1.4-0.7-2.1v-3.5c2.1-22.2,2.8-43.8,4.9-66.1c0-2.1,0.7-4.9,0.7-7c0.7-2.8,0.7-4.9,1.4-7.7c0.7,0,1.4,0.7,1.4,0.7
			c0.5,0,0.9,0.2,1.4,0.7c0.7,0,0.7,0.7,1.4,0.7c0.7,0,0.7,0,0.7,0.7c24.3,13.9,48,27.8,72.3,41.7c0.7,0.7,1.4,0.7,2.1,1.4l0.7,0.7
			c0,0.7,0.7,0.7,0.7,1.4c0,0.7,0.7,1.4,0.7,2.1v50.8c0,4.9,0.7,13.9,1.4,13.9c0.7,0,2.1,1.4,2.8,0.7c0.7-0.7,2.1,0.7,2.8,0
			c1.4-0.7,2.8-0.7,4.2-1.4c9.7-6.3,18.8-12.5,28.5-19.5c12.5-9,24.3-17.4,36.9-26.4c1.4-0.7,3.5-1.4,3.5-2.1v1.4l-4.9,136.3H1418.5
			z M1417.1,1266.8c-1.4,0.7-3.5,1.4-4.9,2.1c-4.9,2.1-9.7,3.5-14.6,4.2c-2.1,0.7-3.5,0.7-4.2,0c-0.7,0-0.7-0.7-1.4-0.7
			c-0.7-0.7-1.4-2.1-1.4-4.2c-0.7-1.4-0.7-2.8-0.7-4.9c-2.8-27.1-6.3-53.5-9-80.7c-1.4-11.8,0.7-25-5.6-36.2
			c-0.7-0.7-0.7-2.1-0.7-2.8c-0.7-11.8-4.9-22.9-9-34.1c-1.4-3.5-2.8-7.7-5.6-12.5c4.9,0,8.3,0,11.8,0.7c18.1,0.7,29.9,9,34.8,27.1
			c3.5,11.1,6.3,21.6,8.3,32.7c2.1,11.8,4.2,23.6,6.3,34.8c2.1,11.8,3.5,23.6,5.6,34.8c2.1,11.1,3.5,21.6,4.9,33.4
			C1426.9,1262.6,1422,1264.7,1417.1,1266.8z M1454.7,1126.4c0,2.8-0.7,4.9-2.1,9c-3.5-5.6-6.3-11.8-9-17.4s-6.3-11.8-9.7-17.4
			c1.4,0,3.5,0,4.9,0.7c2.8,0,5.6,0.7,8.3,0.7c1.4,0,2.8,0.7,3.5,0.7h0.7c0.7,0,1.4,0.7,2.1,0.7c0.7,0,0.7,0.7,0.7,0.7
			c0.5,0.5,0.7,0.9,0.7,1.4v2.8C1455.4,1113.8,1455.4,1120.1,1454.7,1126.4z"/>
	</g>
</g>
<path class="st9" d="M755.7,740.5c-48.7,52.1-81.4,104.3-101.5,137c18.8-32.7,38.9-64,62.6-93.2C729.3,769,742.5,754.4,755.7,740.5z
	"/>
<path class="st7" d="M1043,570.8c1.4,4.2,4.9,4.9,7.7,6.3c8.3,4.2,16.7,9,25,13.2c4.2,2.1,8.3,4.9,11.8,7
	c29.9,15.3,60.5,30.6,90.4,45.9c1.4,0.7,2.8,2.1,4.9,3.5c-2.1,4.2-4.2,8.3-6.3,11.8c-10.4,18.1-20.9,35.5-31.3,53.5
	c-3.5,6.3-8.3,13.2-9.7,20.2s2.1,14.6,3.5,22.2c9,47.3,18.1,93.9,27.8,141.1c9.7,44.5,20.2,88.3,30.6,132.1c0.7,2.1,1.4,4.2,2.1,6.3
	c9.7,2.8,41,3.5,47.3,2.1v-4.9c-3.5-19.5-7-38.2-11.1-57.7c-9-41.7-18.8-83.4-28.5-125.2c-0.7-3.5-1.4-6.3-1.4-9.7
	c0.7,0,0.7-0.7,1.4-0.7c2.1,2.8,4.2,5.6,5.6,8.3c17.4,29.9,34.8,59.8,52.2,89.7c18.1,31.3,36.9,63.3,54.9,95.3
	c2.8,4.9,6.3,7.7,12.5,7.7c34.8,0.7,69.5,2.1,104.3,3.5h8.3c-0.7-2.8-1.4-4.2-2.1-5.6c-34.1-70.2-69.6-139.1-112.7-204.4
	c-54.2-82-111.3-161.3-173.9-237.1c-12.5-14.6-25-29.9-36.9-44.5c-1.4-1.4-2.1-2.8-3.5-4.2c-7.7-7.7-9.7-8.3-19.5-3.5
	c-16,7.7-32,16-47.3,24.3C1046.4,568,1044.3,569.4,1043,570.8z"/>
<path class="st7" d="M997.7,1131.9c-21.6,11.1-42.4,22.2-64.7,33.4c-2.8-2.8-4.9-5.6-7-8.3c-19.5-25-39.6-50.1-59.1-75.8
	c-5.6-7.6-11.8-15.3-17.4-23.6c-2.1-2.8-3.5-4.9-5.6-7.6c-0.7-0.7-1.4-1.4-1.4-2.1c-0.7-0.7-0.7-1.4-0.7-2.1
	c-0.7-1.4-0.7-2.8-0.7-4.9c0-1.4,0.7-3.5,0.7-4.9c0.7-1.4,0.7-2.8,1.4-4.2c0.7-1.4,0.7-2.8,1.4-4.2c7-17.4,13.9-34.8,20.9-51.5
	c0-0.7,0.7-0.7,0.7-1.4c0.7-0.7,0.7-1.4,0.7-2.1l0.7-0.7l0.7-0.7c0.7-0.7,2.1-0.7,3.5-0.7c0.7,0,2.1,0.7,4.2,2.1
	c4.2,2.1,8.3,4.9,12.5,7.7c1.4,0.7,2.8,1.4,4.2,2.1c11.1,6.3,22.3,12.5,34.1,19.5c3.5,2.1,7.7,4.2,11.1,6.3
	c7.7,4.2,15.3,8.3,22.9,12.5c1.4,0.7,2.8,1.4,3.5,2.1c3.5,2.8,5.6,5.6,7,10.4c9,30.6,18.1,60.5,27.1,91.1
	C997.1,1127.1,997.8,1129.8,997.7,1131.9L997.7,1131.9z"/>
<path class="st7" d="M1421.3,1503.2c1.4-47.3,3.5-93.2,4.9-139.8c-2.1,0.7-3.5,1.4-4.9,2.1c-12.5,9-25,17.4-38.2,26.4
	c-9.7,7-18.8,13.2-28.5,19.5c-2.8,2.1-5.6,2.8-9.7,4.9c-0.7-6.3-1.4-11.1-1.4-16v-50.1c0-3.5-0.7-6.3-4.2-8.3
	c-24.3-13.9-48-27.8-72.3-41.7c-1.4-0.7-2.8-1.4-4.9-2.1c-0.7,5.6-2.1,10.4-2.1,14.6c-1.4,22.2-2.8,44.5-4.9,66.1
	c-0.7,5.6,1.4,9,6.3,12.5c29.2,20.9,58.4,41.7,87.6,61.9c18.1,12.5,36.2,25,54.2,38.2C1408.8,1494.9,1415,1498.4,1421.3,1503.2z"/>
<path class="st7" d="M1373.3,831.5c2.1-7,3.5-13.9,6.3-20.2c4.9-11.1,2.1-19.5-4.9-29.2c-18.1-24.3-35.5-49.4-53.6-73.7
	c-16-22.9-32-45.9-48.7-67.4c-18.8-24.3-38.2-48.7-58.4-72.3c-5.6-7-13.2-13.2-19.5-20.2c-13.2-13.9-25.7-27.8-38.9-41.7
	c-2.1-2.1-3.5-4.2-6.3-7c-4.2,7-8.3,13.2-12.5,19.5c-1.4,2.1-0.7,4.2,0.7,6.3c4.2,4.9,7.6,10.4,11.8,15.3
	c29.2,36.9,59.1,73,86.9,110.6c38.9,51.5,77.2,103.6,115.5,155.8c4.9,7,10.4,14.6,15.3,21.6c0.7,1.4,2.1,2.8,2.8,4.2
	C1371.9,832.2,1372.6,831.5,1373.3,831.5z"/>
<path class="st7" d="M1052.7,1087.4c-0.7,15.3-1.4,30.6-1.4,46.6c68.8,3.5,137,7.7,205.2,9.7c4.2-22.9,4.9-25,25.7-47.3v-0.7
	c0,0,0-0.7-0.7-0.7c-75.1-2.8-150.2-5.6-225.3-8.3C1054.8,1086.7,1054.1,1087.4,1052.7,1087.4z"/>
<path class="st7" d="M1058.3,1300.2c3.5-11.1,4.2-22.2,4.9-33.4c1.4-16.7,1.4-32.7,2.1-49.4c0-2.1-0.7-5.6-2.1-7
	c-13.9-13.9-27.8-27.8-41.7-41h-2.8c-17.4,8.3-35.5,16.7-52.9,25.7c-8.3,4.2-12.5,11.1-12.5,20.9c0,6.3,0,12.5-0.7,18.8
	c0,4.9,2.1,7.6,6.3,9.7c7,3.5,13.2,7.6,20.2,11.1c25,14.6,50.1,28.5,75.1,43.1C1055.5,1299.5,1056.2,1299.5,1058.3,1300.2z"/>
<path class="st7" d="M1157,419.9c-1.4-0.7-2.1-1.4-2.8-2.1c-23.6-12.5-47.3-25.7-71.6-38.2c-7-4.2-8.3-3.5-13.9,2.8
	c-16.7,21.6-33.4,43.1-49.4,64.7c-1.4,1.4-1.4,2.8-2.8,4.2c4.2,3.5,80.7,38.2,91.1,41.7C1124.3,468.6,1141,444.3,1157,419.9z"/>
<path class="st7" d="M1166.1,1271.7c-3.5,6.3-6.3,11.8-9.7,17.4c-1.4,3.5-3.5,6.3-4.9,9.7c-2.8,5.6-2.1,11.1,2.8,15.3
	c7.7,6.3,16,13.2,24.3,18.8c6.3,4.2,8.3,3.5,10.4-4.2c7.7-25,14.6-50.1,22.3-75.8c1.4-5.6,3.5-10.4,4.9-16.7
	c-2.1-1.4-3.5-2.1-4.9-2.8c-33.4-15.3-67.5-30.6-101.5-45.9c-3.5-1.4-7.7-2.8-11.8-4.2s-8.3,0-12.5,2.1c0.7,6.3,3.5,10.4,7.7,13.9
	c4.2,3.5,4.9,7.7,4.2,12.5c-0.7,4.9-1.4,9-2.1,14.6c4.2,2.1,7.7,4.2,11.8,7c4.2,2.1,8.3,4.2,11.8,7c5.6,4.2,7,8.3,3.5,14.6
	c-3.5,5.6-7,11.1-11.1,16.7c-0.7,1.4-2.1,2.8-3.5,4.9l11.8,11.8c2.8-3.5,4.2-7,6.3-10.4c2.8-4.2,5.6-8.3,8.3-11.8
	c3.5-4.9,8.3-5.6,13.9-3.5C1156.3,1266.1,1161.2,1268.9,1166.1,1271.7L1166.1,1271.7z"/>
<path class="st7" d="M1359.4,1097.2c2.1,5.6,3.5,9,5.6,12.5c4.9,11.1,8.3,22.2,9,34.1c0,0.7,0,2.1,0.7,2.8
	c6.3,11.1,4.2,23.6,5.6,36.2c3.5,27.1,6.3,53.5,9,80.7c0,1.4,0,2.8,0.7,4.9c1.4,4.2,2.8,5.6,7,4.9c4.9-1.4,9.7-2.8,14.6-4.2
	c6.3-2.1,12.5-4.9,20.2-8.3c-2.1-11.1-3.5-22.2-4.9-33.4c-3.5-23.6-7.7-46.6-11.8-70.2c-2.1-11.1-4.9-22.2-8.3-32.7
	c-5.6-18.1-16.7-26.4-34.8-27.1C1368.4,1097.8,1364.3,1097.8,1359.4,1097.2z"/>
<path class="st7" d="M1306.5,1273.1c4.2-10.4,6.3-20.9,8.3-31.3c5.6-28.5,11.1-56.3,16.7-84.8c2.1-11.8,2.8-22.9-2.8-34.1
	c-1.4-2.1-2.1-4.9-4.2-6.3c-3.5-4.2-7-5.6-11.8-2.8c-9,5.6-17.4,12.5-20.2,24.3c-9,34.1-17.4,68.8-25.7,102.9
	c-3.5,15.3-4.2,15.3,11.1,20.9C1287.1,1266.1,1296.8,1269.6,1306.5,1273.1z"/>
<path class="st7" d="M1207.1,216.2c-14.6,8.3-45.2,54.2-50.8,75.8c22.3,16,45.9,30.6,70.9,44.5c0.7-2.1,1.4-2.8,1.4-4.2
	c0.7-22.9,2.1-45.9,2.8-68.8c0-2.1,0-4.2-0.7-6.3C1226.6,241.9,1216.8,228.7,1207.1,216.2z"/>
<path class="st7" d="M1205,352.5c-3.5-2.1-5.6-4.9-8.3-6.3c-20.9-11.8-42.4-23.6-63.3-34.8c-7.6-4.2-9.7-3.5-15.3,2.8
	c-7,8.3-13.2,16.7-20.2,25.7c-1.4,2.1-2.8,4.9-4.2,7c6.3,7.7,59.8,38.2,79.3,45.9C1182.7,380.3,1193.9,366.4,1205,352.5z"/>
<path class="st7" d="M1115.3,933.1c-11.8,31.3-24.3,62.6-34.8,95.3c25.7,2.1,50.1,2.1,75.8,1.4C1143.1,997,1129.9,965,1115.3,933.1z
	"/>
<path class="st7" d="M1230.7,420.6c-2.1,18.8-2.8,36.9,0,54.9c0.7,3.5,2.1,7,4.9,9c13.9,11.8,29.9,19.5,45.9,29.9
	c0.7-22.2,1.4-43.1,2.1-63.3C1266.2,441.5,1248.8,431,1230.7,420.6z"/>
<path class="st10" d="M1248.1,378.9c11.1,15.3,21.6,30.6,42.4,34.8c10.4,2.1,19.5-0.7,27.8-7c1.4-1.4,2.8-4.2,2.8-6.3
	c0-1.4-3.5-2.8-5.6-2.8c-18.1-2.1-34.1-8.3-50.8-15.3C1259.9,378.9,1254.4,376.8,1248.1,378.9z"/>
<path class="st10" d="M1395.6,379.6c-11.8,11.1-25,14.6-38.9,18.1c-4.9,1.4-5.6,4.9-2.1,8.3c4.9,4.9,11.1,6.3,18.1,4.2
	C1383,408.1,1394.9,392.8,1395.6,379.6z"/>
<path class="st7" d="M1452.6,1134.7c0.7-3.5,1.4-6.3,2.1-9c0.7-6.3,0.7-12.5,0.7-18.1c0-3.5-1.4-6.3-4.9-6.3
	c-4.9-0.7-9.7-0.7-16.7-1.4C1440.8,1112.5,1446.3,1122.9,1452.6,1134.7z"/>
<path class="st11" d="M1848.3,1225.1c-5.6,166.9-73.7,317.1-180.1,429l-79.3-44.5v-5.6c-7-27.1-14.6-54.2-21.6-81.4
	c-4.9-17.4-3.5-21.6,12.5-29.9c27.8-15.3,56.3-30.6,84.8-46.6c7.7-4.2,15.3-9,22.9-13.2c7-4.2,7.7-4.9,4.9-13.2
	c-4.2-14.6-8.3-29.2-12.5-43.8c-26.4-96.7-52.9-192.6-79.3-288.6c-11.1-40.3-21.6-80.7-33.4-120.3c-20.2-70.9-38.9-141.8-59.1-212.8
	c-8.3-31.3-17.4-61.9-26.4-93.2c-2.8-8.3-5.6-17.4-8.3-25.7c-1.4-5.6-4.2-9-9-11.8c-18.8-12.5-37.6-25-56.3-37.5
	c-2.8-1.4-4.9-3.5-7-6.3C1670.3,669.5,1858.8,927.5,1848.3,1225.1z"/>
<path class="st11" d="M901.4,626.2l-0.7,0.7c0,0.7-0.7,1.4-1.4,2.8c0,0.7-0.7,0.7-1.4,2.1c-0.5,0.5-0.7,0.9-0.7,1.4
	c-1.4,1.4-2.1,3.5-3.5,5.6c-1.4,2.8-4.2,6.3-6.3,9.7c-36.9,57.7-102.4,174.8-118.9,200.9L799,865c2.8,7.6,7.9,29.6,12.7,63.7v0.7
	l65.4,25l-7,17.4c-1.4-0.7-2.1-0.7-3.5,0.7c0,0-0.7,0-0.7,0.7l-0.7,0.7c-0.7,0.7-0.7,1.4-0.7,2.1c0,0.7-0.7,0.7-0.7,1.4
	c-7,17.4-13.9,34.1-20.9,51.5c-0.7,1.4-0.7,2.8-1.4,4.2c-0.7,1.4-0.7,2.8-1.4,4.2c-0.7,2.1-0.7,3.5-0.7,4.9s0,3.5,0.7,4.9v0.7
	l-144-98.7c0,0-54.2-36.9-61.2-41.7l-0.7-0.7c0.7-0.7,1.4-1.4,2.1-2.1c4.2-5.6,9-13.2,15.3-23.6c0.7-1.4,1.4-2.1,2.1-3.5
	c20.2-32.7,52.9-84.8,101.5-137l0.7-0.7c30.6-32.7,68.2-66.1,113.4-93.9c0.7-0.7,1.4-0.7,2.1-1.4
	C880.6,637.3,890.3,631.8,901.4,626.2z"/>
</svg>
